<svg width="205" height="40" viewBox="0 0 205 40" fill="none" xmlns="http://www.w3.org/2000/svg">
<circle cx="20" cy="20" r="20" fill="#242424"/>
<path d="M21.3147 31.877V20.5579H24.5687L25 16.5741H21.3147L21.3201 14.58C21.3201 13.541 21.4208 12.9845 22.9427 12.9845H24.9772V9H21.7224C17.8129 9 16.4371 10.9325 16.4371 14.1828V16.5744H14V20.5586H16.4371V31.7165C17.3865 31.902 18.368 32 19.373 32C20.0223 32 20.6708 31.9589 21.3147 31.877V31.877Z" fill="white"/>
<circle cx="75" cy="20" r="20" fill="#242424"/>
<path d="M86 13.2497C85.1909 13.6306 84.3218 13.888 83.4082 14.0043C84.3402 13.4113 85.0553 12.4702 85.3925 11.35C84.5205 11.8999 83.5545 12.2993 82.5265 12.5135C81.7029 11.5828 80.5305 11 79.2322 11C76.7401 11 74.719 13.1477 74.719 15.7979C74.7191 16.1652 74.7581 16.5313 74.8353 16.8893C71.0827 16.6885 67.7584 14.7786 65.5318 11.8772C65.1443 12.5876 64.9214 13.4113 64.9214 14.2885C64.9214 15.9523 65.7189 17.4215 66.929 18.2813C66.2123 18.257 65.5114 18.0512 64.8846 17.681V17.7428C64.8846 20.0665 66.4397 22.0053 68.5054 22.4459C68.1178 22.5571 67.718 22.6132 67.3166 22.6127C67.0315 22.613 66.747 22.5847 66.4669 22.5283C67.0414 24.433 68.708 25.8209 70.6835 25.858C69.1381 27.1449 67.1916 27.912 65.0774 27.912C64.7131 27.912 64.3536 27.8893 64 27.845C65.9979 29.2073 68.3698 30 70.918 30C79.2215 30 83.7609 22.692 83.7609 16.3538C83.7609 16.1479 83.756 15.9399 83.7473 15.734C84.629 15.0565 85.3944 14.2133 85.998 13.2527L86 13.2497Z" fill="white"/>
<circle cx="130" cy="20" r="20" fill="#242424"/>
<path d="M125.298 30H121.377V17.3333H125.298V30ZM123.319 15.6745C122.038 15.6745 121 14.628 121 13.3373C121 12.0464 122.038 11 123.319 11C124.599 11 125.637 12.0464 125.637 13.3373C125.637 14.6281 124.599 15.6745 123.319 15.6745ZM139.99 30H136.089V23.351C136.089 21.5274 135.396 20.5095 133.954 20.5095C132.385 20.5095 131.565 21.5697 131.565 23.351V30H127.804V17.3333H131.565V19.0393C131.565 19.0393 132.696 16.9469 135.382 16.9469C138.068 16.9469 139.99 18.5869 139.99 21.9796L139.99 30Z" fill="white"/>
<circle cx="185" cy="20" r="20" fill="#242424"/>
<path d="M192.997 18.6871C192.835 18.7021 192.672 18.7101 192.509 18.7108C191.628 18.7109 190.761 18.5013 189.987 18.1008C189.212 17.7004 188.554 17.1218 188.071 16.4172V24.2274C188.071 25.3691 187.717 26.4852 187.054 27.4345C186.391 28.3838 185.448 29.1237 184.345 29.5606C183.243 29.9975 182.029 30.1118 180.858 29.8891C179.687 29.6663 178.612 29.1166 177.768 28.3093C176.924 27.5019 176.349 26.4734 176.116 25.3536C175.883 24.2338 176.003 23.0732 176.459 22.0184C176.916 20.9636 177.69 20.062 178.682 19.4277C179.675 18.7934 180.842 18.4549 182.036 18.4549C182.162 18.4549 182.285 18.4657 182.409 18.4731V21.3178C182.285 21.3036 182.163 21.2819 182.036 21.2819C181.219 21.2819 180.435 21.5923 179.857 22.1448C179.28 22.6973 178.955 23.4467 178.955 24.2281C178.955 25.0095 179.28 25.7589 179.857 26.3114C180.435 26.8639 181.219 27.1743 182.036 27.1743C183.737 27.1743 185.24 25.8921 185.24 24.2647L185.27 11H188.115C188.245 12.1825 188.806 13.2836 189.699 14.1109C190.592 14.9381 191.76 15.4389 193 15.5256V18.6871" fill="white"/>
</svg>
