<svg width="1319" height="42" viewBox="0 0 1319 42" fill="none" xmlns="http://www.w3.org/2000/svg">
<path d="M89.298 15.936C89.4066 13.8485 90.1549 12.1423 91.3246 10.8112V9.03819H89.7701C86.6278 9.03819 83.9679 10.2427 82.4214 12.9634H82.331V9.3374H74.2715V31.4493H82.3327V22.5228C82.3327 18.734 83.4412 15.8456 87.9144 15.8456C88.4014 15.849 88.8572 15.8769 89.298 15.936V15.936ZM150.33 15.8553C150.999 13.901 152.085 12.1604 153.497 10.7639V9.03645H151.945C148.801 9.03645 146.144 10.2402 144.59 12.9599H144.503V9.3374H136.438V31.4493H144.503V22.5228C144.503 18.734 145.615 15.8456 150.088 15.8456L150.33 15.8553V15.8553ZM105.668 15.0262C104.425 14.3798 102.694 13.9487 101.317 13.9487C100.392 13.9487 98.7948 14.3335 98.7948 15.4573C98.7948 16.9672 101.317 17.1812 102.432 17.4018C106.19 18.1324 109.032 19.8581 109.032 23.9475C109.032 29.7647 103.582 32.1862 98.3067 32.1862C95.0707 32.1862 91.8876 31.2799 89.1366 29.6412L92.0601 24.1632C93.6971 25.2884 96.4443 26.4052 98.4382 26.4052C99.4579 26.4052 100.963 25.9331 100.963 24.7258C100.963 23.0015 98.4382 22.9111 95.9095 22.266C93.3878 21.6196 90.8657 20.4155 90.8657 16.4492C90.8657 11.0171 95.9095 8.60712 100.881 8.60712C103.451 8.60712 106.022 8.99331 108.365 10.0284L105.669 15.0262H105.668ZM177.671 31.4493H169.61V28.9895H169.521C168.104 31.1877 165.307 32.1779 162.653 32.1779C155.915 32.1779 151.178 26.703 151.178 20.366C151.178 14.0357 155.831 8.6019 162.563 8.6019C165.175 8.6019 167.926 9.54963 169.609 11.4875V9.3374H177.668L177.672 31.4493H177.671ZM159.508 20.4137C159.508 23.2138 161.416 25.3691 164.69 25.3691C167.967 25.3691 169.867 23.2172 169.867 20.4137C169.867 17.6979 167.967 15.4141 164.69 15.4141C161.416 15.4162 159.508 17.6979 159.508 20.4137ZM135.167 21.7101H118.194C118.194 24.897 119.927 26.6192 123.248 26.6192C124.975 26.6192 126.214 26.0615 127.102 24.5943H134.858C133.573 29.8106 128.476 32.1813 123.294 32.1813C115.768 32.1813 110.141 28.0404 110.141 20.4155C110.141 13.0455 115.318 8.60712 122.717 8.60712C130.601 8.60712 135.17 13.3499 135.17 20.8893L135.166 21.7104L135.167 21.7101ZM127.678 17.1812C127.278 15.069 125.285 13.6902 123.116 13.6902C120.765 13.6902 118.824 14.893 118.329 17.1812H127.678V17.1812ZM48.6309 20.0289C48.6222 19.84 48.6101 19.6513 48.5948 19.4629V19.4562C48.4138 17.4049 47.7361 15.4851 46.5862 13.7511C46.0797 12.9868 45.4905 12.2806 44.8292 11.6455C43.87 10.7225 42.7595 9.95913 41.5077 9.35549C39.624 8.45577 37.5428 8.00174 35.322 8.00174C35.1049 8.00174 34.8777 8.00487 34.6492 8.01322C33.0898 8.08385 31.5812 8.37993 30.1631 8.90146C28.7332 9.41811 27.488 10.1007 26.4696 10.9201C26.2626 11.0846 26.0371 11.2868 25.7953 11.5091L25.6207 11.6799L25.3824 11.9332H25.3855L25.2738 12.0435L25.2195 12.1026L24.9349 12.4022C24.7299 12.6328 24.5303 12.8682 24.3362 13.1081L24.3344 13.1047L24.3275 13.098C23.9378 13.5719 23.5777 14.0621 23.3126 14.5029C23.1323 14.7877 22.9579 15.0762 22.7897 15.3682L20.4652 20.0686L20.4684 20.0717L20.3466 20.3104L20.0898 20.8302C19.5801 21.8617 19.0339 22.8898 18.4233 23.7388C17.0629 25.2306 15.5251 25.9613 13.5476 25.9613C13.4091 25.9613 13.2679 25.9543 13.1231 25.9463C11.9318 25.8986 10.9104 25.6175 10.004 25.081C9.90844 25.0246 9.81446 24.9654 9.72222 24.9036C8.9822 24.4116 8.41475 23.7798 7.99029 22.9918C7.51155 22.0983 7.29932 21.1854 7.32924 20.2182C7.33063 20.1917 7.33237 20.1688 7.33237 20.1472C7.39639 18.6077 7.98368 17.4098 9.1666 16.3751C9.44822 16.1337 9.75044 15.9174 10.0698 15.7287C10.114 15.7022 10.1585 15.6775 10.203 15.6545C11.0815 15.1758 12.0818 14.9375 13.2282 14.9375L13.5852 14.9472C15.4065 15.0165 16.8114 15.5857 17.9317 16.6959L21.4457 10.3871C20.6048 9.82448 19.6556 9.34053 18.6094 8.94738C18.5698 8.93277 18.5287 8.91607 18.4877 8.9032C18.3624 8.85866 18.2393 8.81274 18.1109 8.77133C16.9989 8.39976 15.8324 8.17118 14.6317 8.0675C14.6018 8.06228 14.5691 8.05915 14.5395 8.05601C14.3551 8.04419 14.1676 8.02122 13.9835 8.01322C13.7833 8.00556 13.583 8.00115 13.3827 8H13.2689C11.0596 8.008 9.0069 8.46064 7.12954 9.35688C5.02707 10.3704 3.32262 11.8462 2.05933 13.7476C0.799518 15.65 0.111684 17.7608 0.0132228 20.0261C0.00476172 20.218 0.000353779 20.4099 1.96195e-06 20.6019C-0.00173763 23.7697 1.15335 26.5566 3.44961 28.896C5.84676 31.3505 8.96411 32.6733 12.7067 32.8295C12.9467 32.8393 13.184 32.8459 13.4206 32.8459C15.538 32.8459 17.4971 32.4691 19.2541 31.7158C19.6936 31.528 20.1198 31.3077 20.5553 31.0628C20.7926 30.9261 21.0163 30.7813 21.2383 30.6268L21.4029 30.5166L21.6791 30.3273C22.009 30.0884 22.3248 29.8307 22.6251 29.5556L22.7305 29.4554C22.9089 29.2873 23.0832 29.1151 23.2534 28.9387L23.8835 28.2266L24.1236 27.9253L24.2356 27.761L24.3477 27.5996C25.2836 26.027 28.3303 20.3038 28.3303 20.3038V20.2923L28.5112 19.9433L28.6625 19.6702C29.1117 18.8526 29.436 18.2719 29.8653 17.6617L29.8768 17.6436C30.8788 16.191 32.601 15.156 34.6311 14.982C38.0365 14.6891 41.0206 16.9262 41.2954 19.9795C41.5686 23.0328 39.0284 25.7456 35.623 26.0402C34.9139 26.1011 34.2247 26.0535 33.5748 25.9101L33.5584 25.9171C31.0597 25.3969 29.4687 23.5742 28.6841 22.7597L25.4067 28.7857C25.4067 28.7857 26.4254 29.8124 27.123 30.3255C27.8223 30.837 28.7252 31.3408 29.4457 31.6532C31.1943 32.4002 33.0961 32.8476 35.1968 32.8476C35.4403 32.8476 35.3913 32.8476 35.6445 32.8379C39.3836 32.6813 42.7167 31.2486 45.1204 28.794C47.3972 26.463 48.6327 23.8014 48.6442 20.6506V20.5567C48.6422 20.3807 48.6378 20.2048 48.6309 20.0289V20.0289ZM61.1668 32.1963C59.4672 32.1963 57.9259 31.9987 56.5422 31.6038C55.1586 31.2089 53.9774 30.5854 52.9987 29.7303C52.0165 28.8744 51.2598 27.7854 50.7268 26.4647C50.1938 25.1437 49.9273 23.5512 49.9273 21.6954V9.33253H57.7036V21.5966C57.7036 22.9869 58.0359 23.9938 58.6986 24.6221C59.3635 25.2519 60.2076 25.5664 61.2308 25.5664C62.277 25.5664 63.1259 25.2734 63.781 24.6861C64.4323 24.0989 64.7611 23.125 64.7611 21.7563V9.33218H72.5374V21.5326C72.5374 23.4542 72.2647 25.0876 71.7198 26.4317C71.1753 27.7774 70.4071 28.8765 69.4183 29.7317C68.4247 30.5875 67.2289 31.2089 65.8223 31.6055C64.4156 31.9987 62.8643 32.196 61.1668 32.196V32.1963Z" fill="#002979"/>
<g clip-path="url(#clip0_46_522)">
<path d="M369.79 22.1097V31.6396H365.534V17.6986H368.513L369.406 18.8014C372.468 16.4733 376.038 17.086 377.699 19.237L378.482 18.638C380.184 17.3447 382.079 17.0179 384.112 17.5625C385.389 17.9028 386.363 18.6789 386.803 19.9178C387.132 20.8708 387.421 21.8782 387.448 22.8721C387.531 25.6766 387.489 28.4811 387.489 31.2857C387.476 31.4218 387.462 31.5443 387.434 31.6669H383.178V29.2299V24.6964C383.178 24.4241 383.178 24.1382 383.15 23.8659C382.972 21.7421 381.764 20.9388 379.704 21.5923C379.333 21.7285 378.99 21.8918 378.647 22.0688V31.6396H374.308V30.6458V24.5466V24.2743C374.253 21.6195 372.605 20.6665 370.202 21.8782C370.079 21.9191 369.982 21.9871 369.79 22.1097V22.1097Z" fill="#675D55"/>
<path d="M327.787 12.9742H332.263C332.291 13.192 332.318 13.369 332.318 13.546C332.305 17.2082 332.305 20.8841 332.263 24.5463C332.25 25.227 332.167 25.8941 332.016 26.5612C331.371 29.4746 329.586 31.2445 326.593 31.8027C324.574 32.1975 322.487 32.1703 320.496 31.7074C317.736 31.0539 316.033 28.9981 315.676 25.9349C315.553 24.7369 315.484 23.5388 315.484 22.3408C315.457 19.5362 315.471 16.7317 315.471 13.9272V12.9742H319.974V14.0225C319.974 17.0448 319.947 20.0672 319.988 23.0896C320.002 23.9473 320.125 24.805 320.345 25.6354C320.606 26.6565 321.334 27.4053 322.405 27.555C323.407 27.7048 324.437 27.7048 325.439 27.555C326.675 27.3644 327.32 26.4251 327.567 25.2542C327.705 24.5599 327.773 23.852 327.773 23.144C327.801 19.7949 327.787 16.4322 327.787 12.9742V12.9742ZM348.301 31.6665H345.651L344.868 30.6999C343.386 31.7618 341.724 32.1022 339.925 31.9797C337.056 31.7755 335.051 30.1962 334.282 27.4461C333.788 25.7171 333.788 23.8928 334.296 22.1638C335.119 19.3593 337.495 17.4669 340.447 17.358C341.614 17.3171 342.781 17.4669 344.017 17.5486V11.8306H348.301V31.6665ZM344.003 27.6367V21.4695C343.743 21.3469 343.509 21.2108 343.248 21.1291C341.065 20.3667 339.088 21.2244 338.525 23.2121C338.387 23.6477 338.319 24.1106 338.319 24.5735C338.346 25.9349 338.58 27.2691 339.953 27.9635C341.326 28.6442 342.713 28.4672 344.003 27.6367Z" fill="#665C54"/>
<path d="M363.666 25.3224H354.81C354.563 26.5749 355.359 27.8274 356.691 28.2358C358.188 28.6987 359.698 28.5489 361.181 28.0997C361.799 27.9091 362.375 27.6232 363.035 27.3509L362.472 30.6319C361.552 31.4215 360.453 31.7483 359.3 31.8844C357.748 32.0614 356.197 32.0206 354.686 31.5441C352.626 30.877 351.226 29.5292 350.594 27.4734C350.031 25.6627 350.004 23.7295 350.539 21.9188C351.295 19.2776 353.45 17.535 356.224 17.358C356.993 17.2899 357.776 17.3036 358.545 17.4125C360.673 17.7528 362.156 18.9645 362.952 20.9522C363.515 22.3136 363.721 23.7703 363.666 25.3224ZM354.7 23.2121H360.11C359.986 21.4423 358.723 20.5982 357.501 20.5982C355.936 20.6118 354.92 21.524 354.7 23.2121Z" fill="#675C55"/>
<path d="M392.391 17.6987C392.927 19.2099 393.449 20.7074 393.984 22.205C394.506 23.7162 395.028 25.2274 395.632 26.9564L398.708 17.6851H402.964L395.536 36.3502H391.224L393.27 31.1768L387.627 17.6987H392.391Z" fill="#665C55"/>
<path d="M286.375 20.7211L285.757 21.9873C283.807 26.303 281.679 30.537 278.905 34.4171C277.436 36.4728 275.802 38.3652 273.729 39.8628C271.861 41.197 269.802 42.0138 267.467 42.0002C264.927 41.9866 262.881 40.9519 261.371 38.9234C259.998 37.0719 259.449 34.9344 259.284 32.6744C259.064 29.6521 259.586 26.7114 260.272 23.7979C260.437 23.1172 260.575 22.4365 260.753 21.6333C260.135 21.9872 259.613 22.3004 259.092 22.5727C258.213 23.0492 257.279 23.3351 256.263 23.3078C254.272 23.2125 252.981 21.7694 253.036 19.7409C254.505 18.4748 255.988 17.3312 257.307 16.0106C260.808 12.5117 263.486 8.42745 265.531 3.94835C265.82 3.28125 266.163 2.62777 266.534 2.00151C267.509 0.449487 269.074 -0.24484 270.694 0.0955163C272.246 0.422259 273.221 1.57947 273.537 3.43101C273.949 5.81351 273.454 8.11432 272.905 10.4015C271.806 14.8942 270.653 19.3869 269.582 23.8932C269.06 26.0988 268.772 28.3451 268.923 30.6187C268.964 31.2858 269.101 31.9529 269.321 32.5791C269.788 33.8044 270.873 34.1176 271.889 33.2735C272.52 32.7289 273.083 32.1299 273.591 31.4764C276.461 27.8686 278.823 23.9341 280.938 19.8634C282.736 16.3918 284.508 12.9065 286.306 9.4349C286.608 8.83587 286.965 8.26407 287.309 7.69228C288.654 5.50038 291.936 5.69098 293.254 7.85565C293.968 9.02647 294.312 10.3334 294.408 11.6813C294.517 13.0835 294.545 14.4858 294.6 15.8881C294.723 18.9377 294.833 21.9872 294.984 25.0368C295.026 25.6086 295.149 26.1804 295.369 26.725C295.767 27.7461 296.522 28.1273 297.579 27.8142C298.17 27.6508 298.733 27.3921 299.227 27.0381C300.628 25.9898 301.96 24.8735 303.415 23.7026C304.019 23.8796 304.376 24.4106 304.582 25.0777C304.967 26.3438 304.72 27.5691 304.253 28.7399C302.948 32.0346 300.367 33.8861 297.003 34.6213C295.712 34.88 294.38 34.9344 293.062 34.7574C290.494 34.4443 288.778 32.9059 287.776 30.5642C286.842 28.386 286.622 26.0851 286.526 23.7571C286.485 22.7633 286.526 21.7694 286.526 20.762L286.375 20.7211V20.7211Z" fill="#EC5250"/>
</g>
<g clip-path="url(#clip1_46_522)">
<path d="M597.261 32.709C597.261 30.875 595.95 29.532 594.144 29.532C592.341 29.532 591.029 30.875 591.029 32.709C591.029 34.5401 592.341 35.8808 594.144 35.8808C595.95 35.8808 597.261 34.5378 597.261 32.709ZM593.325 32.8719V34.9471H592.65V30.3713H594.329C595.313 30.3713 595.764 30.7976 595.764 31.6287C595.764 32.1406 595.416 32.5461 594.966 32.6048V32.6242C595.356 32.6859 595.5 33.0312 595.58 33.6629C595.641 34.0721 595.723 34.7819 595.87 34.9485H595.071C594.885 34.5185 594.903 33.9099 594.76 33.4002C594.642 33.0126 594.433 32.8712 593.985 32.8712H593.329V32.8734L593.325 32.8719V32.8719ZM594.163 32.2804C594.819 32.2804 595.007 31.9337 595.007 31.6279C595.007 31.2663 594.819 30.9806 594.163 30.9806H593.325V32.2819H594.163V32.2804ZM590.286 32.709C590.286 30.4494 592.094 28.9219 594.141 28.9219C596.195 28.9219 598.001 30.4494 598.001 32.709C598.001 34.9642 596.196 36.4932 594.141 36.4932C592.094 36.4932 590.286 34.9642 590.286 32.709Z" fill="#FF5A00"/>
<path d="M576.923 35.8329L572.478 30.8873L568.072 35.8329H558.8L567.862 25.7333L558.8 15.6309H568.361L572.851 20.5385L577.172 15.6309H586.398L577.382 25.6909L586.524 35.8329H576.923ZM540.997 35.8329V4.0083H558.8V11.1019H548.538V15.6309H558.8V22.4566H548.538V28.7214H558.8V35.8329H540.997Z" fill="#FF5A00"/>
<path d="M533.484 4.0083V17.0326H533.401C531.738 15.1368 529.66 14.4761 527.25 14.4761C522.312 14.4761 518.592 17.8086 517.287 22.2111C515.797 17.3592 511.956 14.3853 506.262 14.3853C501.637 14.3853 497.986 16.4441 496.079 19.7997V15.6301H486.521V11.1027H496.953V4.00979H478V35.8329H486.521V22.4566H495.013C494.752 23.4852 494.621 24.5423 494.624 25.6031C494.624 32.2384 499.735 36.9013 506.261 36.9013C511.746 36.9013 515.364 34.344 517.276 29.6886H509.973C508.986 31.0896 508.236 31.5033 506.262 31.5033C503.973 31.5033 501.997 29.5212 501.997 27.1745H516.867C517.512 32.446 521.651 36.9913 527.333 36.9913C529.784 36.9913 532.028 35.7957 533.4 33.7756H533.482V35.8373H540.995V4.00979H533.484V4.0083V4.0083ZM502.234 22.5519C502.709 20.5296 504.289 19.2082 506.262 19.2082C508.434 19.2082 509.934 20.4886 510.327 22.5519H502.234ZM528.925 30.9899C526.157 30.9899 524.436 28.4312 524.436 25.7586C524.436 22.9015 525.933 20.1568 528.925 20.1568C532.029 20.1568 533.266 22.903 533.266 25.7586C533.266 28.4654 531.956 30.9899 528.925 30.9899Z" fill="#29007C"/>
</g>
<path fill-rule="evenodd" clip-rule="evenodd" d="M823.849 29.554C821.988 30.8738 819.71 31.6004 817.312 31.5983C810.965 31.5963 805.925 26.7016 805.927 20.3027C805.929 13.9477 811.004 8.99694 817.263 9C822.669 9.00204 827.852 12.842 827.85 18.6732C827.85 21.7723 826.546 25.4736 823.147 25.4716C821.984 25.4716 821.132 25.0833 820.167 23.7717L817.811 20.0979L820.739 15.5548L823.147 15.5558L820.123 20.0948L821.437 22.1982C821.93 22.9187 822.466 23.574 823.149 23.5761C825.217 23.5761 825.724 20.3853 825.724 18.8251C825.726 13.9028 821.633 10.8547 817.199 10.8527C811.974 10.8507 808.117 15.0412 808.115 20.3017C808.113 25.7916 812.273 29.7742 817.404 29.7762C819.403 29.7709 821.352 29.1449 822.98 27.9846L823.849 29.554V29.554Z" fill="#284890"/>
<path fill-rule="evenodd" clip-rule="evenodd" d="M810.75 15.5508L812.751 15.5518L812.749 21.9507C812.749 22.6793 812.776 22.8485 812.92 23.1155C813.139 23.5476 813.603 23.784 814.248 23.786C815.102 23.786 815.647 23.3662 815.731 22.6538C815.76 22.4408 815.76 22.3012 815.76 21.7835L815.764 15.5538H817.753L817.749 22.1076C817.749 23.0329 817.734 23.2143 817.594 23.6322C817.341 24.4046 816.389 25.4655 814.29 25.4635C812.805 25.4635 811.726 25.0171 811.167 24.1641C810.845 23.6587 810.747 23.2663 810.749 22.3287L810.75 15.5508V15.5508Z" fill="#CC2131"/>
<path fill-rule="evenodd" clip-rule="evenodd" d="M673 31.3598V9.77243H684.04L683.09 12.3609H675.916V19.0431H683.024V21.598H675.916V28.7713H684.105V31.3598H673V31.3598ZM704.414 20.3536C704.414 24.8091 702.154 28.7724 695.832 28.7724H693.243V12.3609H695.864C701.728 12.3609 704.414 15.8982 704.414 20.3536ZM707.461 20.3536C707.461 14.2931 703.727 9.77243 695.635 9.77243H690.328V31.3598H695.635C703.596 31.3598 707.461 26.4784 707.461 20.3536V20.3536ZM727.934 29.4602C726.591 30.836 724.527 31.688 721.514 31.688C718.697 31.688 716.764 30.9359 715.487 29.7211C713.816 28.0835 713.391 25.6611 713.391 23.5312V9.77243H716.305V23.466C716.305 24.9732 716.666 26.6109 717.747 27.7258C718.566 28.5757 719.811 29.1331 721.579 29.1331C723.577 29.1331 724.921 28.6093 725.772 27.7258C726.689 26.7423 727.05 25.3013 727.05 23.6637V9.77344H729.965V23.8583C729.965 25.9872 729.343 28.0192 727.934 29.4602V29.4602ZM746.573 31.688C740.022 31.688 736.058 27.0368 736.058 20.8122C736.058 14.555 740.514 9.60938 747.131 9.60938C749.62 9.60938 751.553 10.1994 752.666 10.8537L752.634 13.7367C750.996 12.7207 749.424 12.1316 747.097 12.1316C742.216 12.1316 739.202 15.8992 739.202 20.6156C739.202 25.498 742.118 29.0669 746.967 29.0669C748.834 29.0669 750.602 28.5115 752.109 27.6911L752.961 29.9525C750.832 31.1642 748.67 31.688 746.573 31.688V31.688ZM769.398 23.203H763.043L765.435 16.6523C765.827 15.6047 766.09 14.7853 766.287 13.9986H766.318C766.483 14.7191 766.744 15.6037 767.139 16.6849L769.398 23.203ZM775.688 31.3598L767.27 9.70721H765.401L757.114 31.3598H759.997L762.028 25.7273H770.381L772.576 31.3598H775.688V31.3598ZM791.764 12.3609H785.737V31.3598H782.789V12.3609H776.597V9.77243H792.649L791.764 12.3609ZM797.365 31.3598V9.77243H800.28V31.3598H797.365V31.3598ZM849.384 31.3598L838.837 17.438C837.657 15.9308 837.068 15.0799 836.609 14.2279H836.544C836.609 14.9494 836.642 15.833 836.642 16.9142V31.3598H833.726V9.77243H836.708L846.829 23.1704C848.141 24.9059 848.762 25.7263 849.188 26.6098H849.253C849.212 25.6715 849.19 24.7323 849.188 23.7931V9.77243H852.103V31.3598H849.384V31.3598Z" fill="#284890"/>
<path fill-rule="evenodd" clip-rule="evenodd" d="M979.616 33.0132H978.552V38.2462H982.197V37.3031H979.612V33.0161L979.616 33.0132ZM1016.03 38.2462H1017.09V33.0132H1016.03V38.2462ZM985.974 36.0375H988.511V35.0904H985.974V33.9612H988.697V33.0132H984.915V38.2462H988.717V37.3031H985.974V36.0365V36.0375ZM973.483 35.1255L972.134 33.0132H970.868L972.928 36.131V38.2482H973.991V36.129L976.03 33.0113H974.793L973.483 35.1255ZM938.271 38.2433H939.329V33.0132H938.268V38.2462L938.271 38.2433ZM943.324 38.2433H944.384V36.0384H946.624V35.0904H944.384V33.9612H946.94V33.0132H943.324V38.2462V38.2433ZM964.56 33.9563H966.187V38.2433H967.25V33.9563H968.877V33.0132H964.56V33.9612V33.9563ZM951.616 36.0384H954.148V35.0904H951.616V33.9612H954.34V33.0132H950.552V38.2462H954.355V37.3031H951.616V36.0365V36.0384ZM932.301 33.0181H931.242V38.2511H934.886V37.3031H932.301V33.0161V33.0181ZM961.567 35.5708C961.399 35.4528 961.213 35.3617 961.016 35.3009C960.823 35.2353 960.626 35.1797 960.427 35.1343C960.256 35.0945 960.084 35.0562 959.913 35.0193L959.852 35.0066C959.69 34.9753 959.531 34.9289 959.378 34.8683C959.273 34.8314 959.177 34.7714 959.1 34.6929C959.072 34.6628 959.051 34.6276 959.038 34.5895C959.025 34.5513 959.02 34.5109 959.023 34.4708C959.021 34.3693 959.044 34.2688 959.092 34.1785C959.132 34.1019 959.193 34.0383 959.27 33.9953C959.356 33.9435 959.452 33.9075 959.552 33.8891C959.669 33.8641 959.789 33.852 959.909 33.8531C960.16 33.8378 960.41 33.9064 960.617 34.0479C960.709 34.1211 960.783 34.2134 960.835 34.3182C960.886 34.423 960.914 34.5376 960.915 34.6539L960.935 34.8361H961.951L961.942 34.6267C961.941 34.3621 961.881 34.1009 961.768 33.8609C961.668 33.6453 961.517 33.4562 961.327 33.3094C961.14 33.164 960.923 33.0584 960.692 32.9996C960.216 32.8693 959.712 32.8693 959.236 32.9996C959.008 33.054 958.792 33.1509 958.601 33.285C958.408 33.4139 958.249 33.5867 958.139 33.7888C958.018 34.0143 957.958 34.2666 957.965 34.5214C957.953 34.7357 958.001 34.9491 958.102 35.1391C958.204 35.329 958.357 35.4883 958.544 35.6C958.716 35.7084 958.903 35.7924 959.099 35.8494C959.297 35.905 959.486 35.9566 959.685 36.0004L959.787 36.017C959.945 36.053 960.103 36.0881 960.256 36.1203C960.415 36.1499 960.571 36.1994 960.718 36.2674C960.826 36.3101 960.923 36.3768 961 36.4623C961.059 36.5413 961.088 36.6382 961.082 36.736C961.086 36.849 961.059 36.9611 961.004 37.0605C960.951 37.1425 960.878 37.2097 960.79 37.2553C960.686 37.3126 960.572 37.3531 960.454 37.3752C960.163 37.4367 959.86 37.427 959.573 37.3469C959.435 37.3161 959.305 37.2566 959.192 37.1725C959.084 37.0957 958.996 36.9957 958.933 36.8802C958.865 36.7476 958.831 36.6003 958.834 36.4515V36.2567H957.809V36.4584C957.805 36.7522 957.867 37.0434 957.991 37.3109C958.108 37.5446 958.278 37.7491 958.488 37.9091C958.7 38.064 958.94 38.1784 959.196 38.2462C959.467 38.322 959.747 38.3594 960.029 38.3573C960.271 38.3562 960.513 38.3284 960.749 38.2745C960.989 38.2206 961.217 38.1267 961.425 37.9968C961.63 37.8645 961.804 37.6899 961.934 37.4853C962.077 37.2554 962.149 36.9897 962.14 36.7204C962.148 36.4796 962.093 36.2408 961.982 36.0258C961.882 35.8436 961.739 35.6866 961.567 35.5669V35.5708ZM1055.6 33.9651H1057.22V38.2521H1058.28V33.9651H1059.91V33.0132H1055.6V33.9612L1055.6 33.9651ZM1071.03 33.7556C1070.83 33.498 1070.57 33.2867 1070.28 33.1369C1069.96 32.9843 1069.6 32.9051 1069.24 32.9051C1068.88 32.9051 1068.53 32.9843 1068.21 33.1369C1067.92 33.2862 1067.66 33.4976 1067.47 33.7556C1067.26 34.0177 1067.11 34.3153 1067.03 34.6325C1066.93 34.9587 1066.88 35.2965 1066.88 35.636C1066.88 35.9765 1066.93 36.3153 1067.03 36.6425C1067.11 36.9597 1067.26 37.2573 1067.47 37.5194C1067.66 37.7775 1067.92 37.9889 1068.21 38.1381C1068.53 38.2927 1068.89 38.3702 1069.25 38.3641C1069.6 38.3697 1069.96 38.2909 1070.28 38.1342C1070.57 37.9859 1070.83 37.7759 1071.03 37.5194C1071.23 37.2579 1071.37 36.9621 1071.46 36.6474C1071.56 36.316 1071.61 35.9724 1071.61 35.6273C1071.61 35.2876 1071.56 34.9495 1071.46 34.6237C1071.37 34.3084 1071.23 34.0123 1071.03 33.7508V33.7556ZM1070.6 35.6273C1070.6 35.8545 1070.57 36.0808 1070.51 36.3015C1070.46 36.5054 1070.38 36.6997 1070.26 36.8763C1070.16 37.0366 1070.01 37.1701 1069.84 37.2661C1069.66 37.3628 1069.45 37.4134 1069.24 37.4134C1069.03 37.4134 1068.83 37.3628 1068.64 37.2661C1068.47 37.1706 1068.33 37.0369 1068.23 36.8763C1068.11 36.7007 1068.02 36.5061 1067.98 36.3015C1067.92 36.0805 1067.9 35.8543 1067.89 35.6273C1067.9 35.4019 1067.92 35.1772 1067.98 34.9579C1068.02 34.7524 1068.11 34.5566 1068.23 34.3792C1068.33 34.2207 1068.48 34.0875 1068.64 33.9895C1068.83 33.8897 1069.04 33.8406 1069.25 33.8472C1069.45 33.8409 1069.66 33.8901 1069.84 33.9895C1070.01 34.0881 1070.15 34.2211 1070.26 34.3792C1070.38 34.5569 1070.46 34.7525 1070.51 34.9579C1070.57 35.1768 1070.6 35.4016 1070.6 35.6273V35.6273ZM1062.63 38.2433H1063.69V33.0132H1062.63V38.2462V38.2433ZM1077.61 33.3864V36.5899L1075.4 33.4721L1075.34 33.3854H1074.34V38.2696H1075.37V35.1031L1077.55 38.1839L1077.61 38.2715H1078.64V33.3864H1077.61ZM1052.03 33.0132H1051.03L1048.97 38.2462H1050.08L1050.62 36.7955H1052.4L1052.93 38.2462H1054.09L1052.08 33.1447L1052.03 33.0132ZM1052.05 35.8475H1050.98L1051.52 34.3811L1052.05 35.8475ZM1023.94 36.4623L1021.67 33.0132H1020.66V38.2462H1021.69V34.841L1023.93 38.2462H1024.96V33.0132H1023.94V36.4623H1023.94ZM1031.77 36.4623L1029.57 33.1087L1029.51 33.0171H1028.5V38.2501H1029.53V34.84L1031.77 38.2501H1032.8V33.0132H1031.77V36.4574L1031.77 36.4623ZM1040.18 33.7508C1039.96 33.4899 1039.69 33.2787 1039.38 33.1321C1039.03 32.9793 1038.65 32.9004 1038.27 32.9004C1037.89 32.9004 1037.51 32.9793 1037.16 33.1321C1036.86 33.2776 1036.58 33.4875 1036.37 33.7469C1036.15 34.0071 1035.99 34.3045 1035.88 34.6237C1035.78 34.9487 1035.73 35.2871 1035.73 35.6273C1035.73 35.971 1035.78 36.3128 1035.88 36.6415C1035.99 36.9604 1036.15 37.2576 1036.36 37.5184C1036.58 37.7789 1036.85 37.9886 1037.16 38.1322C1037.51 38.2815 1037.89 38.3586 1038.27 38.3586C1038.65 38.3586 1039.03 38.2815 1039.38 38.1322C1039.69 37.9895 1039.96 37.7815 1040.18 37.5233C1040.39 37.2648 1040.56 36.9668 1040.66 36.6464C1040.77 36.317 1040.82 35.973 1040.82 35.6273C1040.82 35.2857 1040.77 34.9459 1040.66 34.6208C1040.56 34.3015 1040.4 34.0045 1040.18 33.7469L1040.18 33.7508ZM1039.75 35.6273C1039.75 35.8536 1039.72 36.079 1039.66 36.2976C1039.61 36.5021 1039.52 36.6949 1039.4 36.8646C1039.28 37.0314 1039.12 37.1675 1038.94 37.2612C1038.73 37.3591 1038.51 37.41 1038.28 37.41C1038.05 37.41 1037.82 37.3591 1037.61 37.2612C1037.43 37.1661 1037.27 37.0303 1037.15 36.8646C1037.03 36.6931 1036.94 36.5009 1036.89 36.2976C1036.83 36.0775 1036.8 35.8509 1036.8 35.6234C1036.8 35.3986 1036.83 35.1748 1036.88 34.957C1036.94 34.7496 1037.03 34.5537 1037.16 34.3782C1037.28 34.2044 1037.45 34.0628 1037.65 33.9652C1037.84 33.8676 1038.06 33.8167 1038.28 33.8167C1038.5 33.8167 1038.71 33.8676 1038.91 33.9652C1039.1 34.0628 1039.27 34.2044 1039.4 34.3782C1039.52 34.5515 1039.61 34.7461 1039.67 34.9521C1039.73 35.1727 1039.75 35.3996 1039.75 35.6273V35.6273ZM1045.36 36.7653L1044.15 33.1496L1044.11 33.0113H1042.97L1044.83 38.2443H1045.86L1047.74 33.0113H1046.62L1045.36 36.7653Z" fill="#727171"/>
<path fill-rule="evenodd" clip-rule="evenodd" d="M1047.32 4.79922C1046.45 3.94785 1045.26 3.47167 1044.03 3.47514H1028.5C1027.89 3.47321 1027.28 3.58932 1026.72 3.81685C1026.15 4.04437 1025.64 4.37885 1025.2 4.80117C1024.31 5.93279 1023.83 7.32413 1023.84 8.75393V18.6139C1023.83 20.0617 1024.31 21.4717 1025.2 22.6251C1025.64 23.0474 1026.15 23.3817 1026.72 23.6091C1027.28 23.8365 1027.89 23.9524 1028.5 23.9502H1044.03C1044.64 23.9523 1045.25 23.8363 1045.81 23.6089C1046.38 23.3816 1046.89 23.0473 1047.32 22.6251C1048.22 21.4718 1048.7 20.0618 1048.69 18.6139V8.75199C1048.7 7.32207 1048.21 5.93072 1047.32 4.79922H1047.32ZM1043.76 18.0293C1043.76 18.4639 1043.59 18.268 1043.26 18.5759C1043.11 18.728 1042.92 18.8484 1042.72 18.9302C1042.52 19.012 1042.3 19.0535 1042.08 19.0524H1030.55C1030.1 19.0539 1029.68 18.8825 1029.36 18.5759C1029.04 18.269 1028.87 18.4649 1028.87 18.0293V9.94259C1028.87 9.72864 1028.91 9.51676 1029 9.31935C1029.08 9.12194 1029.2 8.94297 1029.36 8.79291C1029.68 8.48623 1030.1 8.31457 1030.55 8.3155H1042.08C1042.3 8.31466 1042.52 8.3564 1042.73 8.43833C1042.93 8.52026 1043.11 8.64076 1043.27 8.79291C1043.43 8.94219 1043.55 9.12087 1043.64 9.31836C1043.72 9.51584 1043.77 9.72811 1043.77 9.94259V18.0293H1043.76ZM1078.46 7.9891C1078.46 7.39473 1078.34 6.80611 1078.11 6.25793C1077.87 5.70975 1077.53 5.21311 1077.1 4.79727C1076.18 3.94392 1074.97 3.47018 1073.7 3.47514H1052.72V23.9492H1057.65V9.93479C1057.65 9.72048 1057.69 9.50826 1057.77 9.31052C1057.86 9.11278 1057.98 8.9335 1058.14 8.78316C1058.45 8.47784 1058.88 8.30757 1059.32 8.30965H1060.93C1061.38 8.30725 1061.8 8.47757 1062.12 8.78316C1062.28 8.93292 1062.4 9.11196 1062.49 9.30974C1062.57 9.50752 1062.61 9.72004 1062.62 9.93479V23.9492H1067.57V9.93479C1067.57 9.72001 1067.61 9.50742 1067.7 9.30961C1067.78 9.1118 1067.91 8.93278 1068.07 8.78316C1068.38 8.47779 1068.81 8.30752 1069.25 8.30965H1071.86C1072.3 8.30725 1072.73 8.47757 1073.05 8.78316C1073.2 8.93278 1073.33 9.1118 1073.41 9.30961C1073.5 9.50742 1073.54 9.72001 1073.54 9.93479V23.9492H1078.47V7.9891H1078.46ZM999.995 8.74906C999.988 7.31975 1000.47 5.92904 1001.36 4.79825C1002.29 3.94399 1003.51 3.4704 1004.78 3.47514H1020.82V8.31257H1006.63C1006.41 8.31098 1006.19 8.35217 1005.99 8.43376C1005.78 8.51535 1005.59 8.63574 1005.44 8.78803C1005.28 8.93808 1005.16 9.11703 1005.07 9.31443C1004.99 9.51183 1004.95 9.72372 1004.95 9.93772V18.0323C1004.95 18.4658 1005.12 18.27 1005.44 18.5779C1005.59 18.7304 1005.78 18.851 1005.98 18.9328C1006.19 19.0145 1006.41 19.0558 1006.63 19.0543H1020.82V23.9512H1004.78C1003.51 23.9566 1002.29 23.4824 1001.36 22.6271C1000.47 21.4737 999.989 20.0637 999.997 18.6159V8.74809L999.995 8.74906ZM974.184 23.9483H959.797C959.203 23.9494 958.615 23.8326 958.068 23.6049C957.522 23.3771 957.028 23.0432 956.616 22.6232C955.721 21.4119 955.242 19.9521 955.251 18.4561V3.47514H960.244V17.8744C960.244 18.3109 960.418 18.1131 960.735 18.422C961.051 18.7269 961.477 18.8968 961.92 18.8945H974.188V23.9483H974.184ZM931.376 3.47514H952.252V8.26483H938.379C937.936 8.26285 937.51 8.43312 937.194 8.73834C937.039 8.86591 936.914 9.02511 936.829 9.20483C936.743 9.38455 936.698 9.58047 936.697 9.77891V10.5252C936.697 10.74 936.741 10.9526 936.827 11.1504C936.912 11.3482 937.037 11.5272 937.194 11.6769C937.51 11.9822 937.936 12.1527 938.379 12.1513H951.574V16.0729H938.379C938.159 16.0716 937.942 16.1131 937.738 16.1949C937.535 16.2766 937.35 16.3971 937.194 16.5494C936.876 16.8563 936.697 16.2902 936.697 16.7238V17.9855C936.697 18.421 936.871 18.2242 937.194 18.5331C937.51 18.8389 937.936 19.0099 938.379 19.0085H952.252V23.9502H936.035C934.801 23.9539 933.616 23.4773 932.741 22.6251C932.307 22.2093 931.963 21.7125 931.729 21.1641C931.494 20.6157 931.374 20.0269 931.376 19.4323V3.47514ZM976.166 3.47514H997.018V8.30965H983.419C982.976 8.30787 982.549 8.4789 982.234 8.78511C982.077 8.93447 981.953 9.11316 981.867 9.31063C981.782 9.50809 981.738 9.72033 981.737 9.93479V10.685C981.737 10.8998 981.782 11.1124 981.867 11.3102C981.952 11.508 982.077 11.687 982.234 11.8366C982.55 12.1421 982.976 12.3127 983.419 12.3111H995.967V16.1226H983.419C983.2 16.1214 982.982 16.1629 982.778 16.2446C982.575 16.3264 982.39 16.4469 982.234 16.5991C981.916 16.9069 981.737 16.3409 981.737 16.7735V18.0401C981.737 18.4746 981.912 18.2778 982.234 18.5866C982.55 18.8927 982.976 19.0637 983.419 19.0621H996.993V23.959H981.075C979.841 23.9627 978.656 23.4861 977.78 22.6339C976.81 21.4448 976.246 19.9872 976.166 18.4668V3.47514ZM1006.94 38.4606V34.5244C1006.94 34.19 1006.81 33.8688 1006.57 33.6309C1006.45 33.5133 1006.31 33.42 1006.15 33.3564C1006 33.2928 1005.83 33.2603 1005.67 33.2607H1005.08C1004.93 33.2609 1004.77 33.2941 1004.63 33.358C1004.49 33.4219 1004.37 33.5151 1004.27 33.6309C1004.03 33.8687 1003.89 34.1899 1003.89 34.5244V38.4606H1000.96V34.5244C1000.96 34.1899 1000.83 33.8687 1000.59 33.6309C1000.3 33.3904 999.935 33.259 999.557 33.2607H999.144C998.976 33.2602 998.81 33.2927 998.656 33.3563C998.501 33.4199 998.361 33.5133 998.244 33.6309C998.124 33.7485 998.03 33.8879 997.966 34.0412C997.902 34.1945 997.869 34.3587 997.87 34.5244V38.4606H994.98V30.7791H1009.84V38.4606H1006.94Z" fill="#014099"/>
<path d="M1314.75 7.33216H1315.46C1315.8 7.33216 1316.03 7.28114 1316.15 7.18165C1316.21 7.13411 1316.26 7.07337 1316.29 7.00428C1316.32 6.93519 1316.34 6.85965 1316.34 6.7837C1316.34 6.68148 1316.31 6.58144 1316.25 6.49799C1316.18 6.41193 1316.1 6.34672 1316 6.31113C1315.89 6.26648 1315.7 6.24863 1315.41 6.24863H1314.75V7.33216ZM1314.16 9.36403V5.75756H1315.41C1315.83 5.75756 1316.14 5.79136 1316.33 5.85705C1316.52 5.92337 1316.67 6.04072 1316.79 6.20781C1316.9 6.37171 1316.95 6.54837 1316.95 6.73332C1316.95 6.99798 1316.86 7.2263 1316.67 7.42209C1316.48 7.6166 1316.23 7.72693 1315.92 7.75053C1316.05 7.80346 1316.15 7.86724 1316.23 7.94121C1316.37 8.08216 1316.55 8.32131 1316.76 8.65677L1317.2 9.36467H1316.48L1316.16 8.79516C1315.91 8.35001 1315.71 8.07004 1315.56 7.95716C1315.45 7.87234 1315.3 7.82961 1315.09 7.82961H1314.75V9.36403H1314.16ZM1315.64 4.70591C1315.16 4.70591 1314.7 4.82708 1314.25 5.06815C1313.81 5.30672 1313.45 5.66736 1313.2 6.10705C1312.96 6.53414 1312.82 7.01832 1312.82 7.51137C1312.82 7.99542 1312.95 8.45907 1313.19 8.90422C1313.44 9.34681 1313.79 9.69248 1314.24 9.93992C1314.66 10.1837 1315.15 10.3123 1315.64 10.313C1316.12 10.313 1316.59 10.1893 1317.03 9.93992C1317.47 9.70066 1317.83 9.34129 1318.07 8.90422C1318.32 8.47994 1318.44 7.99997 1318.44 7.51137C1318.44 7.02413 1318.32 6.55475 1318.07 6.10705C1317.83 5.66628 1317.46 5.30514 1317.02 5.06751C1316.57 4.82645 1316.11 4.70591 1315.64 4.70591V4.70591ZM1315.64 4.15234C1316.2 4.15234 1316.75 4.29711 1317.29 4.58601C1317.82 4.86813 1318.26 5.29963 1318.55 5.82707C1318.85 6.36661 1319 6.92719 1319 7.51137C1319 8.08917 1318.85 8.64593 1318.56 9.17972C1318.27 9.70483 1317.84 10.1368 1317.31 10.4246C1316.8 10.7132 1316.22 10.8653 1315.64 10.8659C1315.05 10.8654 1314.47 10.7134 1313.96 10.4246C1313.44 10.1359 1313 9.70419 1312.71 9.17972C1312.42 8.6713 1312.27 8.09657 1312.27 7.51137C1312.27 6.92719 1312.42 6.36661 1312.72 5.82707C1313.01 5.30068 1313.45 4.86972 1313.98 4.58665C1314.52 4.29711 1315.07 4.15234 1315.64 4.15234" fill="#808080"/>
<path fill-rule="evenodd" clip-rule="evenodd" d="M1176.33 0.00487839C1174.65 0.0495209 1172.95 0.400921 1171.33 0.980635C1165.09 3.58138 1160.74 9.25608 1158.77 16.0647C1158.44 17.3427 1158.17 18.6221 1158.03 19.9422C1158.03 19.9849 1157.93 21.2847 1158.11 20.9339C1158.3 20.6252 1158.38 20.1705 1158.48 19.8191C1159.44 16.6214 1160.6 13.7114 1162.37 10.9467C1166.64 4.69361 1173.49 0.670689 1180.73 2.89962C1182.07 3.35243 1183.27 4.01377 1184.47 4.79757C1184.7 4.96274 1186.38 6.28352 1186 5.08647C1185.69 4.13877 1184.91 3.33202 1184.22 2.69236C1181.92 0.706403 1179.14 -0.0697383 1176.33 0.00487839V0.00487839ZM1229.18 6.2612C1228.21 6.2612 1227.47 6.59283 1226.95 7.27395C1226.41 7.93338 1226.16 8.92445 1226.16 10.2248V19.6342C1224.96 18.314 1223.72 17.3638 1222.46 16.7228C1221.59 16.3048 1220.66 16.0265 1219.71 15.8982C1219.08 15.8137 1218.44 15.7726 1217.8 15.7752C1214.64 15.7752 1212.05 16.888 1210.11 19.1157C1208.16 21.3446 1207.19 24.4409 1207.19 28.423C1207.19 30.3012 1207.44 32.0537 1207.91 33.6634C1208.41 35.2731 1209.13 36.6755 1210.09 37.8725C1211 39.0298 1212.16 39.9738 1213.48 40.6385C1214.78 41.2762 1216.19 41.6078 1217.72 41.6078C1218.4 41.6078 1219.07 41.5441 1219.71 41.421C1220.11 41.357 1220.51 41.2608 1220.91 41.1334C1221.88 40.8039 1222.79 40.3309 1223.62 39.7303C1224.47 39.1104 1225.29 38.3062 1226.16 37.3368V37.9542C1226.16 39.1321 1226.45 40.0192 1227.01 40.6582C1227.57 41.2768 1228.32 41.6078 1229.18 41.6078C1230.03 41.6078 1230.78 41.2985 1231.33 40.6997C1231.89 40.0804 1232.16 39.1736 1232.16 37.9542V9.89319C1232.16 8.71781 1231.91 7.80966 1231.4 7.1904C1230.86 6.57179 1230.11 6.2612 1229.18 6.2612V6.2612ZM1307.27 6.2612C1306.3 6.2612 1305.55 6.59283 1305.03 7.27395C1304.52 7.93338 1304.25 8.92445 1304.25 10.2248V19.6342C1303.05 18.314 1301.81 17.3638 1300.54 16.7228C1299.76 16.3306 1298.83 16.0436 1297.79 15.8982C1297.16 15.8136 1296.52 15.7725 1295.89 15.7752C1292.72 15.7752 1290.16 16.888 1288.19 19.1157C1286.25 21.3446 1285.27 24.4409 1285.27 28.423C1285.27 30.3012 1285.52 32.0537 1286.02 33.6634C1286.51 35.2731 1287.22 36.6755 1288.17 37.8725C1289.09 39.0303 1290.24 39.9743 1291.56 40.6385C1292.87 41.2762 1294.28 41.6078 1295.81 41.6078C1296.51 41.6078 1297.17 41.5441 1297.79 41.421C1298.21 41.3598 1298.6 41.2571 1298.99 41.1334C1299.96 40.804 1300.87 40.331 1301.7 39.7303C1302.55 39.1104 1303.4 38.3062 1304.25 37.3368V37.9542C1304.25 39.1321 1304.54 40.0192 1305.1 40.6582C1305.67 41.2768 1306.4 41.6078 1307.27 41.6078C1308.16 41.6078 1308.88 41.2985 1309.44 40.6997C1310 40.0804 1310.29 39.1736 1310.29 37.9542V9.89319C1310.29 8.71781 1310.02 7.80966 1309.5 7.1904C1308.96 6.57179 1308.24 6.2612 1307.27 6.2612H1307.27ZM1174.7 7.97994C1173.83 7.95712 1172.96 8.15429 1172.18 8.55327C1169.6 9.85237 1168.56 13.0092 1169.88 15.5883C1171.19 18.168 1174.35 19.2005 1176.94 17.8804C1179.53 16.58 1180.56 13.4231 1179.24 10.8453C1178.81 10.0032 1178.16 9.29187 1177.37 8.78725C1176.57 8.28262 1175.65 8.00361 1174.7 7.97994V7.97994ZM1246.79 15.6916C1244.95 15.7127 1243.27 16.022 1241.74 16.5985C1240.17 17.219 1238.85 18.1068 1237.77 19.242C1236.69 20.3963 1235.87 21.7802 1235.31 23.3886C1234.75 24.9989 1234.46 26.7527 1234.46 28.6296C1234.46 32.6328 1235.62 35.768 1237.89 38.0989C1240.05 40.3081 1243 41.4624 1246.79 41.5855C1247.02 41.6072 1247.22 41.6078 1247.45 41.6078C1249.25 41.6078 1250.83 41.3802 1252.21 40.9063C1253.6 40.4306 1254.74 39.854 1255.65 39.1512C1256.58 38.4306 1257.24 37.687 1257.69 36.9229C1258.15 36.1602 1258.38 35.4797 1258.38 34.9229C1258.38 34.2833 1258.17 33.7673 1257.78 33.4153C1257.36 33.0658 1256.83 32.879 1256.18 32.879C1255.56 32.879 1255.11 33.0244 1254.78 33.2922C1254.14 33.8965 1253.49 34.4882 1252.83 35.0671C1252.31 35.5039 1251.77 35.9102 1251.2 36.2839C1250.6 36.6551 1250 36.9453 1249.36 37.1098C1248.74 37.2947 1248.03 37.3776 1247.27 37.3776C1247.1 37.3776 1246.94 37.3776 1246.79 37.3566C1245.84 37.2947 1244.95 37.0269 1244.14 36.5307C1243.21 35.9746 1242.45 35.15 1241.89 34.0767C1241.31 32.9625 1241.02 31.6832 1241 30.2393H1253.49C1255.15 30.2393 1256.45 29.9919 1257.38 29.5378C1258.29 29.0429 1258.75 28.0104 1258.75 26.4217C1258.75 24.6883 1258.32 22.997 1257.43 21.3261C1256.54 19.6744 1255.19 18.314 1253.41 17.2598C1251.63 16.2088 1249.48 15.6916 1247 15.6916H1246.79ZM1272.34 15.6916C1270.5 15.7127 1268.81 16.022 1267.3 16.5985C1265.72 17.219 1264.4 18.1068 1263.3 19.242C1262.25 20.3963 1261.42 21.7802 1260.86 23.3886C1260.3 24.9989 1260.01 26.7527 1260.01 28.6296C1260.01 32.6328 1261.15 35.768 1263.43 38.0989C1265.58 40.3081 1268.56 41.4624 1272.34 41.5855C1272.55 41.6072 1272.78 41.6078 1273 41.6078C1274.78 41.6078 1276.38 41.3802 1277.76 40.9063C1279.15 40.4306 1280.29 39.854 1281.2 39.1512C1282.11 38.4306 1282.79 37.687 1283.25 36.9229C1283.7 36.1602 1283.93 35.4797 1283.93 34.9229C1283.93 34.2833 1283.72 33.7673 1283.31 33.4153C1282.92 33.0658 1282.38 32.879 1281.72 32.879C1281.11 32.879 1280.66 33.0244 1280.33 33.2922C1279.52 34.0352 1278.88 34.6334 1278.39 35.0671C1277.86 35.504 1277.3 35.9103 1276.73 36.2839C1276.15 36.6551 1275.53 36.9453 1274.91 37.1098C1274.27 37.2947 1273.59 37.3776 1272.82 37.3776C1272.65 37.3776 1272.49 37.3776 1272.34 37.3566C1271.39 37.2947 1270.5 37.0269 1269.69 36.5307C1268.74 35.9746 1268 35.15 1267.42 34.0767C1266.86 32.9625 1266.57 31.6832 1266.55 30.2393H1279.02C1280.7 30.2393 1282 29.9919 1282.92 29.5378C1283.85 29.0429 1284.3 28.0104 1284.3 26.4217C1284.3 24.6883 1283.85 22.997 1282.96 21.3261C1282.07 19.6744 1280.74 18.314 1278.94 17.2598C1277.16 16.2088 1275.03 15.6916 1272.53 15.6916H1272.34ZM1185.44 15.7343C1184.51 15.7343 1183.79 16.043 1183.27 16.6412C1182.73 17.219 1182.46 18.1272 1182.46 19.344V37.7278C1182.46 38.965 1182.75 39.9357 1183.35 40.5964C1183.95 41.2762 1184.7 41.6078 1185.63 41.6078C1186.58 41.6078 1187.35 41.2762 1187.95 40.6385C1188.55 39.9778 1188.86 39.0269 1188.86 37.7278V29.7846C1188.86 27.1634 1189 25.4103 1189.31 24.4607C1189.75 23.2649 1190.45 22.337 1191.38 21.6558C1192.31 20.9951 1193.35 20.6444 1194.49 20.6444C1196.22 20.6444 1197.4 21.2018 1197.98 22.3146C1198.56 23.4301 1198.85 25.0378 1198.85 27.1437V37.7278C1198.85 38.965 1199.14 39.9357 1199.74 40.5964C1200.34 41.2762 1201.11 41.6078 1202.06 41.6078C1202.99 41.6078 1203.75 41.2762 1204.33 40.6161C1204.91 39.9778 1205.22 39.0065 1205.22 37.7278V25.9058C1205.22 24.5034 1205.16 23.3465 1205.04 22.4594C1204.91 21.5513 1204.65 20.7069 1204.21 19.9218C1203.55 18.5813 1202.58 17.5494 1201.25 16.8268C1199.93 16.1042 1198.42 15.7343 1196.74 15.7343C1195 15.7343 1193.47 16.0838 1192.13 16.7656C1190.8 17.4665 1189.58 18.5398 1188.44 20.0245V19.242C1188.44 18.499 1188.32 17.8593 1188.05 17.3223C1187.78 16.7866 1187.41 16.3938 1186.96 16.1253C1186.5 15.8568 1186 15.7343 1185.44 15.7343V15.7343ZM1246.77 20.1284H1246.79C1248.44 20.1284 1249.79 20.6648 1250.8 21.7381C1251.84 22.8102 1252.42 24.4409 1252.58 26.6284H1241C1241.22 24.483 1241.85 22.8523 1242.86 21.7592C1243.87 20.6654 1245.18 20.1284 1246.77 20.1284H1246.77ZM1272.32 20.1284H1272.34C1274 20.1284 1275.34 20.6648 1276.36 21.7381C1277.37 22.8102 1277.97 24.4409 1278.12 26.6284H1266.55C1266.76 24.483 1267.38 22.8523 1268.41 21.7592C1269.43 20.6654 1270.73 20.1284 1272.32 20.1284ZM1219.63 20.4996H1219.71C1220.8 20.4996 1221.82 20.83 1222.73 21.4703C1223.68 22.1093 1224.43 23.0378 1224.98 24.2553C1225.52 25.4728 1225.81 26.9377 1225.81 28.6303C1225.81 30.4453 1225.52 31.951 1224.98 33.1475C1224.43 34.3445 1223.68 35.231 1222.75 35.8081C1221.84 36.3859 1220.8 36.6768 1219.71 36.6768H1219.69C1218.57 36.6768 1217.55 36.3668 1216.62 35.7686C1215.67 35.15 1214.95 34.2418 1214.41 33.0454C1213.87 31.828 1213.6 30.363 1213.6 28.6296C1213.6 26.9995 1213.85 25.555 1214.35 24.3376C1214.87 23.1003 1215.57 22.1501 1216.5 21.49C1217.41 20.8083 1218.47 20.4996 1219.63 20.4996V20.4996ZM1297.73 20.4996H1297.79C1298.89 20.4996 1299.9 20.83 1300.83 21.4703C1301.76 22.1093 1302.51 23.0378 1303.07 24.2553C1303.63 25.4728 1303.9 26.9377 1303.9 28.6303C1303.9 30.4453 1303.63 31.951 1303.07 33.1475C1302.51 34.3445 1301.76 35.231 1300.85 35.8081C1299.94 36.3835 1298.87 36.685 1297.79 36.6768H1297.77C1296.66 36.6768 1295.64 36.3668 1294.71 35.7686C1293.78 35.15 1293.03 34.2418 1292.5 33.0454C1291.96 31.828 1291.69 30.363 1291.69 28.6296C1291.69 26.9995 1291.94 25.5557 1292.45 24.3376C1292.95 23.1003 1293.67 22.1501 1294.59 21.49C1295.52 20.8083 1296.55 20.4996 1297.73 20.4996V20.4996ZM1178.24 20.7069C1176.59 21.6954 1174.64 22.2534 1172.57 22.2534C1172.14 22.2534 1171.73 22.2336 1171.29 22.1916V37.3776C1171.29 38.7807 1171.62 39.833 1172.26 40.5351C1172.93 41.2571 1173.73 41.6078 1174.75 41.6078C1175.78 41.6078 1176.63 41.2571 1177.27 40.5556C1177.91 39.854 1178.24 38.8017 1178.24 37.3776V20.7075V20.7069Z" fill="#2164F3"/>
<defs>
<clipPath id="clip0_46_522">
<rect width="150" height="42" fill="white" transform="translate(253)"/>
</clipPath>
<clipPath id="clip1_46_522">
<rect width="120" height="33" fill="white" transform="translate(478 4)"/>
</clipPath>
</defs>
</svg>
