<svg width="154" height="30" viewBox="0 0 154 30" fill="none" xmlns="http://www.w3.org/2000/svg">
<circle cx="15" cy="15" r="15" fill="#242424"/>
<path d="M15.986 23.9077V15.4184H18.4265L18.75 12.4306H15.986L15.9901 10.935C15.9901 10.1557 16.0656 9.73835 17.207 9.73835H18.7329V6.75H16.2918C13.3597 6.75 12.3278 8.19935 12.3278 10.6371V12.4308H10.5V15.4189H12.3278V23.7874C13.0399 23.9265 13.776 24 14.5298 24C15.0167 24 15.5031 23.9692 15.986 23.9077Z" fill="white"/>
<circle cx="56.25" cy="15" r="15" fill="#242424"/>
<path d="M64.5 9.93724C63.8932 10.2229 63.2414 10.416 62.5561 10.5032C63.2552 10.0585 63.7915 9.35266 64.0444 8.51252C63.3903 8.92489 62.6658 9.22448 61.8949 9.3851C61.2772 8.68706 60.3979 8.25 59.4241 8.25C57.5551 8.25 56.0393 9.86078 56.0393 11.8484C56.0394 12.1239 56.0686 12.3984 56.1265 12.667C53.312 12.5163 50.8188 11.0839 49.1489 8.9079C48.8582 9.44071 48.6911 10.0585 48.6911 10.7164C48.6911 11.9642 49.2892 13.0661 50.1968 13.7109C49.6592 13.6927 49.1335 13.5384 48.6635 13.2607V13.3071C48.6635 15.0499 49.8298 16.5039 51.3791 16.8345C51.0884 16.9178 50.7885 16.9599 50.4874 16.9595C50.2736 16.9597 50.0602 16.9385 49.8502 16.8962C50.2811 18.3248 51.531 19.3657 53.0127 19.3935C51.8536 20.3587 50.3937 20.934 48.8081 20.934C48.5348 20.934 48.2652 20.917 48 20.8838C49.4984 21.9055 51.2773 22.5 53.1885 22.5C59.4161 22.5 62.8206 17.019 62.8206 12.2654C62.8206 12.111 62.817 11.955 62.8104 11.8005C63.4717 11.2924 64.0458 10.66 64.4985 9.93954L64.5 9.93724Z" fill="white"/>
<circle cx="97.5" cy="15" r="15" fill="#242424"/>
<path d="M93.9732 22.5H91.0326V13H93.9732V22.5ZM92.4889 11.7559C91.5285 11.7559 90.75 10.971 90.75 10.003C90.75 9.03482 91.5286 8.25 92.4889 8.25C93.4491 8.25 94.2276 9.03482 94.2276 10.003C94.2277 10.9711 93.4492 11.7559 92.4889 11.7559ZM104.993 22.5H102.067V17.5133C102.067 16.1456 101.547 15.3821 100.466 15.3821C99.2885 15.3821 98.6736 16.1773 98.6736 17.5133V22.5H95.8533V13H98.6736V14.2795C98.6736 14.2795 99.5219 12.7102 101.536 12.7102C103.551 12.7102 104.993 13.9402 104.993 16.4847L104.993 22.5Z" fill="white"/>
<circle cx="138.75" cy="15" r="15" fill="#242424"/>
<path d="M144.748 14.0153C144.626 14.0266 144.504 14.0325 144.382 14.0331C143.721 14.0332 143.071 13.8759 142.49 13.5756C141.909 13.2753 141.415 12.8413 141.054 12.3129V18.1706C141.054 19.0268 140.788 19.8639 140.291 20.5759C139.793 21.2878 139.086 21.8428 138.259 22.1704C137.432 22.4981 136.522 22.5839 135.644 22.4168C134.766 22.2498 133.959 21.8374 133.326 21.2319C132.693 20.6265 132.262 19.855 132.087 19.0152C131.912 18.1754 132.002 17.3049 132.345 16.5138C132.687 15.7227 133.267 15.0465 134.012 14.5708C134.756 14.0951 135.631 13.8411 136.527 13.8411C136.621 13.8411 136.714 13.8493 136.807 13.8548V15.9883C136.714 15.9777 136.622 15.9614 136.527 15.9614C135.914 15.9614 135.326 16.1942 134.893 16.6086C134.46 17.023 134.216 17.585 134.216 18.1711C134.216 18.7571 134.46 19.3191 134.893 19.7335C135.326 20.1479 135.914 20.3807 136.527 20.3807C137.803 20.3807 138.93 19.4191 138.93 18.1985L138.952 8.25H141.086C141.184 9.13685 141.604 9.9627 142.274 10.5832C142.944 11.2036 143.82 11.5792 144.75 11.6442V14.0153" fill="white"/>
</svg>
